<svg width="46" height="46" viewBox="0 0 46 46" fill="none" xmlns="http://www.w3.org/2000/svg">
<circle cx="23.1428" cy="23" r="22.8571" fill="#0D0D0D"/>
<path fill-rule="evenodd" clip-rule="evenodd" d="M17.2533 8.79995C18.7766 8.72982 19.2623 8.71423 23.1429 8.71423C27.0234 8.71423 27.5091 8.73112 29.0312 8.79995C30.5533 8.86878 31.5922 9.11164 32.5013 9.46358C33.4533 9.82332 34.3169 10.3857 35.0312 11.1129C35.7584 11.8259 36.3195 12.6883 36.6779 13.6415C37.0312 14.5506 37.2727 15.5896 37.3429 17.109C37.413 18.635 37.4286 19.1207 37.4286 22.9999C37.4286 26.8805 37.4117 27.3662 37.3429 28.8896C37.274 30.409 37.0312 31.448 36.6779 32.3571C36.3195 33.3105 35.7575 34.1742 35.0312 34.8883C34.3169 35.6155 33.4533 36.1766 32.5013 36.535C31.5922 36.8883 30.5532 37.1298 29.0338 37.1999C27.5091 37.2701 27.0234 37.2857 23.1429 37.2857C19.2623 37.2857 18.7766 37.2688 17.2533 37.1999C15.7338 37.1311 14.6948 36.8883 13.7857 36.535C12.8324 36.1765 11.9686 35.6146 11.2545 34.8883C10.5278 34.1748 9.96535 33.3115 9.6065 32.3584C9.25455 31.4493 9.01299 30.4103 8.94286 28.8909C8.87273 27.3649 8.85715 26.8792 8.85715 22.9999C8.85715 19.1194 8.87403 18.6337 8.94286 17.1116C9.01169 15.5896 9.25455 14.5506 9.6065 13.6415C9.96588 12.6884 10.5287 11.825 11.2558 11.1116C11.9689 10.385 12.8318 9.8226 13.7844 9.46358C14.6935 9.11164 15.7325 8.87008 17.252 8.79995H17.2533ZM28.9156 11.3714C27.4091 11.3025 26.9571 11.2883 23.1429 11.2883C19.3286 11.2883 18.8766 11.3025 17.3701 11.3714C15.9766 11.435 15.2208 11.6675 14.7169 11.8636C14.0507 12.1233 13.574 12.4311 13.074 12.9311C12.6001 13.3922 12.2353 13.9536 12.0065 14.574C11.8104 15.0779 11.5779 15.8337 11.5143 17.2272C11.4455 18.7337 11.4312 19.1857 11.4312 22.9999C11.4312 26.8142 11.4455 27.2662 11.5143 28.7727C11.5779 30.1662 11.8104 30.922 12.0065 31.4259C12.2351 32.0454 12.6 32.6077 13.074 33.0688C13.5351 33.5428 14.0974 33.9077 14.7169 34.1363C15.2208 34.3324 15.9766 34.5649 17.3701 34.6285C18.8766 34.6974 19.3273 34.7116 23.1429 34.7116C26.9584 34.7116 27.4091 34.6974 28.9156 34.6285C30.3091 34.5649 31.0649 34.3324 31.5688 34.1363C32.2351 33.8766 32.7117 33.5688 33.2117 33.0688C33.6857 32.6077 34.0507 32.0454 34.2792 31.4259C34.4753 30.922 34.7078 30.1662 34.7714 28.7727C34.8403 27.2662 34.8545 26.8142 34.8545 22.9999C34.8545 19.1857 34.8403 18.7337 34.7714 17.2272C34.7078 15.8337 34.4753 15.0779 34.2792 14.574C34.0195 13.9077 33.7117 13.4311 33.2117 12.9311C32.7506 12.4572 32.1892 12.0924 31.5688 11.8636C31.0649 11.6675 30.3091 11.435 28.9156 11.3714ZM21.3182 27.4038C22.3372 27.828 23.4719 27.8853 24.5285 27.5658C25.585 27.2463 26.4979 26.57 27.1112 25.6522C27.7245 24.7345 28.0001 23.6322 27.891 22.5338C27.7819 21.4355 27.2948 20.409 26.513 19.6298C26.0146 19.1317 25.412 18.7504 24.7485 18.5131C24.085 18.2759 23.3772 18.1887 22.676 18.2579C21.9748 18.3271 21.2976 18.5508 20.6933 18.9131C20.0889 19.2754 19.5724 19.7671 19.1809 20.353C18.7894 20.9389 18.5327 21.6042 18.4292 22.3012C18.3258 22.9982 18.3781 23.7094 18.5825 24.3837C18.7869 25.0581 19.1383 25.6787 19.6113 26.2009C20.0844 26.7231 20.6673 27.134 21.3182 27.4038ZM17.9507 17.8077C18.6325 17.1259 19.442 16.585 20.3329 16.216C21.2237 15.847 22.1786 15.6571 23.1429 15.6571C24.1071 15.6571 25.062 15.847 25.9529 16.216C26.8437 16.585 27.6532 17.1259 28.3351 17.8077C29.0169 18.4896 29.5578 19.2991 29.9268 20.1899C30.2958 21.0808 30.4858 22.0357 30.4858 22.9999C30.4858 23.9642 30.2958 24.9191 29.9268 25.8099C29.5578 26.7008 29.0169 27.5103 28.3351 28.1922C26.958 29.5692 25.0903 30.3428 23.1429 30.3428C21.1954 30.3428 19.3277 29.5692 17.9507 28.1922C16.5736 26.8151 15.8 24.9474 15.8 22.9999C15.8 21.0525 16.5736 19.1848 17.9507 17.8077ZM32.1143 16.7506C32.2833 16.5912 32.4185 16.3995 32.5121 16.1869C32.6056 15.9743 32.6556 15.7451 32.659 15.5128C32.6624 15.2806 32.6191 15.05 32.5318 14.8348C32.4445 14.6195 32.3149 14.424 32.1506 14.2597C31.9864 14.0955 31.7908 13.9659 31.5756 13.8785C31.3603 13.7912 31.1298 13.748 30.8975 13.7514C30.6652 13.7547 30.436 13.8047 30.2234 13.8983C30.0108 13.9918 29.8191 14.1271 29.6597 14.2961C29.3498 14.6247 29.18 15.0611 29.1866 15.5128C29.1932 15.9645 29.3756 16.3959 29.695 16.7153C30.0144 17.0348 30.4458 17.2171 30.8975 17.2237C31.3492 17.2303 31.7857 17.0606 32.1143 16.7506Z" fill="white"/>
</svg>
