<svg width="166" height="50" viewBox="0 0 166 50" fill="none" xmlns="http://www.w3.org/2000/svg">
<path d="M24.9434 0.0823975C11.2093 0.0823975 0.0751343 11.241 0.0751343 25.0056C0.0751343 38.7708 11.2093 49.9285 24.9434 49.9285C38.6789 49.9285 49.8119 38.7708 49.8119 25.0056C49.8119 11.2419 38.6789 0.0835879 24.9431 0.0835879L24.9434 0.0823975ZM36.3478 36.0288C35.9023 36.761 34.9461 36.9931 34.2156 36.5437C28.3768 32.9693 21.0265 32.1598 12.3701 34.1419C11.536 34.3324 10.7045 33.8086 10.5144 32.9723C10.3235 32.136 10.8441 31.3026 11.6803 31.1122C21.1533 28.9431 29.279 29.877 35.834 33.8919C36.5645 34.3413 36.7962 35.2967 36.3478 36.0288ZM39.3916 29.2425C38.8303 30.1568 37.6366 30.4455 36.7249 29.883C30.0404 25.7651 19.8508 24.5726 11.9443 26.9779C10.9189 27.2884 9.83588 26.7092 9.52466 25.6833C9.21583 24.6556 9.794 23.5723 10.8176 23.2598C19.849 20.5134 31.0767 21.8437 38.7531 26.5714C39.6648 27.1339 39.9528 28.3303 39.3916 29.2428V29.2425ZM39.6529 22.1759C31.638 17.4047 18.4144 16.966 10.7621 19.2937C9.53327 19.6672 8.23378 18.972 7.8614 17.7404C7.48901 16.5083 8.18211 15.2068 9.41182 14.8324C18.1962 12.1598 32.7991 12.6761 42.0268 18.1663C43.1345 18.8238 43.4968 20.2544 42.8405 21.3607C42.1872 22.4684 40.7558 22.8336 39.6541 22.1759H39.6529ZM67.7333 23.0901C63.4393 22.0639 62.6761 21.3437 62.6761 19.8303C62.6761 18.4006 64.0184 17.4384 66.0169 17.4384C67.9531 17.4384 69.8715 18.169 71.8848 19.6732C71.9442 19.7187 72.0214 19.7369 72.0957 19.725C72.1729 19.7136 72.2382 19.6723 72.2828 19.6101L74.3793 16.6482C74.4654 16.5261 74.4417 16.358 74.3258 16.2648C71.9294 14.3384 69.233 13.4017 66.0793 13.4017C61.4438 13.4017 58.2039 16.1901 58.2039 20.1797C58.2039 24.458 60.9983 25.9729 65.8269 27.1422C69.9338 28.0907 70.6287 28.8854 70.6287 30.3056C70.6287 31.88 69.2271 32.8592 66.9702 32.8592C64.4638 32.8592 62.4178 32.011 60.1312 30.0288C60.0748 29.9782 59.9976 29.9574 59.9263 29.9604C59.8491 29.9663 59.7808 30.002 59.7333 30.0586L57.3814 32.8622C57.2834 32.9812 57.2952 33.1538 57.4081 33.255C60.0688 35.636 63.3413 36.8919 66.8751 36.8919C71.87 36.8919 75.0979 34.1568 75.0979 29.9217C75.1068 26.3482 72.9717 24.369 67.7423 23.094L67.7333 23.0901ZM86.4002 18.8461C84.2354 18.8461 82.4595 19.7009 80.9926 21.4523V19.4809C80.9926 19.3253 80.8678 19.1985 80.7134 19.1985H76.8678C76.7134 19.1985 76.5887 19.3253 76.5887 19.4809V41.386C76.5887 41.5407 76.7134 41.6687 76.8678 41.6687H80.7134C80.8678 41.6687 80.9926 41.5407 80.9926 41.386V34.4723C82.4595 36.1181 84.2354 36.9247 86.4002 36.9247C90.424 36.9247 94.4983 33.8205 94.4983 27.8863C94.5042 21.9509 90.4299 18.8458 86.4032 18.8458L86.4002 18.8461ZM90.0261 27.8863C90.0261 30.9068 88.1701 33.0169 85.5093 33.0169C82.8812 33.0169 80.8975 30.8116 80.8975 27.8863C80.8975 24.9607 82.8812 22.7559 85.5093 22.7559C88.1255 22.7556 90.0261 24.9128 90.0261 27.886V27.8863ZM104.936 18.8461C99.7544 18.8461 95.695 22.8449 95.695 27.9509C95.695 33.002 99.7277 36.9574 104.874 36.9574C110.074 36.9574 114.145 32.9723 114.145 27.8863C114.145 22.8175 110.1 18.8467 104.936 18.8467V18.8461ZM104.936 33.0467C102.181 33.0467 100.102 30.8264 100.102 27.8848C100.102 24.9297 102.109 22.7854 104.874 22.7854C107.648 22.7854 109.738 25.0047 109.738 27.9494C109.738 30.9038 107.719 33.0467 104.936 33.0467ZM125.21 19.1985H120.978V14.8634C120.978 14.708 120.853 14.5812 120.699 14.5812H116.853C116.699 14.5812 116.571 14.708 116.571 14.8634V19.1985H114.724C114.57 19.1985 114.445 19.3253 114.445 19.4809V22.7925C114.445 22.9479 114.57 23.075 114.724 23.075H116.571V31.6449C116.571 35.1062 118.291 36.8622 121.685 36.8622C123.063 36.8622 124.206 36.5764 125.284 35.9634C125.373 35.9157 125.427 35.8205 125.427 35.7193V32.5645C125.427 32.4693 125.376 32.377 125.293 32.3264C125.21 32.2729 125.106 32.2699 125.02 32.3145C124.28 32.6866 123.565 32.8592 122.763 32.8592C121.53 32.8592 120.978 32.2967 120.978 31.0407V23.0764H125.21C125.364 23.0764 125.489 22.9497 125.489 22.794V19.4827C125.495 19.327 125.37 19.2003 125.213 19.2003L125.21 19.1985ZM139.951 19.2154V18.683C139.951 17.1166 140.551 16.4181 141.893 16.4181C142.695 16.4181 143.339 16.5776 144.061 16.8187C144.15 16.8467 144.242 16.8327 144.313 16.7794C144.387 16.7261 144.429 16.6407 144.429 16.5503V13.3032C144.429 13.1791 144.352 13.0693 144.23 13.0327C143.47 12.8056 142.496 12.5726 141.035 12.5726C137.486 12.5726 135.606 14.5767 135.606 18.3663V19.1818H133.759C133.605 19.1818 133.477 19.3086 133.477 19.4639V22.7925C133.477 22.9479 133.605 23.075 133.759 23.075H135.606V36.2907C135.606 36.4485 135.734 36.5735 135.888 36.5735H139.731C139.888 36.5735 140.013 36.4485 140.013 36.2907V23.0759H143.603L149.103 36.2907C148.479 37.6776 147.865 37.9544 147.027 37.9544C146.35 37.9544 145.635 37.752 144.907 37.3503C144.839 37.3145 144.756 37.3086 144.684 37.3294C144.61 37.3562 144.548 37.4098 144.518 37.4812L143.214 40.3473C143.152 40.4842 143.205 40.6419 143.336 40.7134C144.696 41.4515 145.923 41.7669 147.44 41.7669C150.279 41.7669 151.85 40.4395 153.231 36.8741L159.9 19.6011C159.936 19.5142 159.924 19.416 159.871 19.3389C159.82 19.2625 159.734 19.2163 159.642 19.2163H155.639C155.517 19.2163 155.41 19.2928 155.372 19.4056L151.271 31.1419L146.781 19.3979C146.739 19.2887 146.635 19.2163 146.52 19.2163H139.951V19.2154ZM131.404 19.1985H127.559C127.404 19.1985 127.277 19.3253 127.277 19.4809V36.2907C127.277 36.4485 127.404 36.5735 127.559 36.5735H131.404C131.559 36.5735 131.686 36.4485 131.686 36.2907V19.4821C131.686 19.3264 131.562 19.1997 131.404 19.1997V19.1985ZM129.504 11.544C127.98 11.544 126.745 12.7797 126.745 14.3062C126.745 15.8336 127.98 17.0708 129.504 17.0708C131.027 17.0708 132.26 15.8336 132.26 14.3062C132.26 12.78 131.024 11.544 129.504 11.544ZM163.185 24.6035C161.664 24.6035 160.48 23.3788 160.48 21.8916C160.48 20.4044 161.679 19.1657 163.2 19.1657C164.72 19.1657 165.905 20.3901 165.905 21.8761C165.905 23.3634 164.705 24.6035 163.185 24.6035ZM163.2 19.4354C161.813 19.4354 160.765 20.5395 160.765 21.8916C160.765 23.2431 161.807 24.3324 163.185 24.3324C164.572 24.3324 165.62 23.2291 165.62 21.8761C165.62 20.5247 164.578 19.4354 163.2 19.4354ZM163.8 22.155L164.566 23.2288H163.918L163.229 22.2437H162.638V23.2288H162.098V20.3824H163.363C164.025 20.3824 164.459 20.7208 164.459 21.2904C164.462 21.7571 164.192 22.0422 163.803 22.155H163.8ZM163.342 20.8708H162.638V21.7711H163.342C163.693 21.7711 163.903 21.5988 163.903 21.3205C163.903 21.0276 163.693 20.8708 163.342 20.8708Z" fill="#1B1B1B"/>
</svg>
