<svg width="51" height="52" viewBox="0 0 51 52" fill="none" xmlns="http://www.w3.org/2000/svg">
<path d="M25.5 3.25C13.1783 3.25 3.1875 13.4367 3.1875 26C3.1875 38.5633 13.1783 48.75 25.5 48.75C37.8217 48.75 47.8125 38.5633 47.8125 26C47.8125 13.4367 37.8217 3.25 25.5 3.25ZM36.2229 20.3988C36.2379 20.6375 36.2379 20.8863 36.2379 21.1301C36.2379 28.5848 30.6697 37.1719 20.4946 37.1719C17.3569 37.1719 14.4483 36.2426 11.9979 34.643C12.4462 34.6938 12.8745 34.7141 13.3327 34.7141C15.9226 34.7141 18.3032 33.8203 20.2008 32.307C17.7703 32.2563 15.7283 30.6313 15.0311 28.3969C15.8827 28.5238 16.6497 28.5238 17.5263 28.2953C16.2748 28.0361 15.15 27.3431 14.3428 26.3341C13.5357 25.325 13.0961 24.0622 13.0986 22.7602V22.6891C13.8308 23.1105 14.6924 23.3695 15.5938 23.4051C14.836 22.8901 14.2145 22.1925 13.7845 21.374C13.3545 20.5555 13.1291 19.6414 13.1285 18.7129C13.1285 17.6617 13.3975 16.702 13.8806 15.8691C15.2696 17.6126 17.003 19.0386 18.9679 20.0544C20.9329 21.0701 23.0855 21.6529 25.2858 21.7648C24.5039 17.9309 27.3129 14.8281 30.6896 14.8281C32.2834 14.8281 33.7178 15.5086 34.7288 16.6055C35.9789 16.3668 37.1742 15.8895 38.24 15.2496C37.8267 16.5547 36.9601 17.6566 35.8096 18.3523C36.9252 18.2305 38.001 17.9156 38.9971 17.4738C38.245 18.6012 37.3037 19.6016 36.2229 20.3988Z" fill="#1ED760"/>
</svg>
