<svg width="50" height="50" viewBox="0 0 50 50" fill="none" xmlns="http://www.w3.org/2000/svg">
<path d="M24.9434 0.082428C11.2093 0.082428 0.0751343 11.2411 0.0751343 25.0056C0.0751343 38.7708 11.2093 49.9286 24.9434 49.9286C38.6789 49.9286 49.8119 38.7708 49.8119 25.0056C49.8119 11.242 38.6789 0.0836184 24.9431 0.0836184L24.9434 0.082428ZM36.3478 36.0289C35.9023 36.761 34.9461 36.9931 34.2156 36.5437C28.3768 32.9693 21.0265 32.1598 12.3701 34.142C11.536 34.3324 10.7045 33.8086 10.5144 32.9723C10.3235 32.136 10.8441 31.3027 11.6803 31.1122C21.1533 28.9431 29.279 29.8771 35.834 33.892C36.5645 34.3414 36.7962 35.2967 36.3478 36.0289ZM39.3916 29.2425C38.8303 30.1568 37.6366 30.4455 36.7249 29.883C30.0404 25.7652 19.8508 24.5726 11.9443 26.978C10.9189 27.2884 9.83588 26.7092 9.52466 25.6833C9.21583 24.6556 9.794 23.5723 10.8176 23.2598C19.849 20.5134 31.0767 21.8437 38.7531 26.5714C39.6648 27.1339 39.9528 28.33 39.3916 29.2425ZM39.6529 22.1759C31.638 17.4048 18.4144 16.9661 10.7621 19.2937C9.53327 19.6673 8.23378 18.972 7.8614 17.7405C7.48901 16.5083 8.18211 15.2068 9.41182 14.8324C18.1962 12.1598 32.7991 12.6762 42.0268 18.1664C43.1345 18.8238 43.4968 20.2545 42.8405 21.3607C42.1872 22.4684 40.7558 22.8336 39.6541 22.1759H39.6529Z" fill="#1ED760"/>
</svg>
